<svg xmlns="http://www.w3.org/2000/svg" viewBox="0 0 24 24" fill="none">
  <defs>
    <linearGradient id="edge-gradient" x1="0%" y1="100%" x2="100%" y2="0%">
      <stop offset="0%" style="stop-color:#0078D4"/>
      <stop offset="100%" style="stop-color:#50E6FF"/>
    </linearGradient>
  </defs>
  <path fill="url(#edge-gradient)" d="M21.86 17.86q.14 0 .25.12.1.13.1.25t-.11.33l-.32.46-.43.53-.44.5q-.21.25-.38.42l-.22.23q-.58.53-1.34 1.04-.76.51-1.6.91-.86.4-1.74.64-.89.24-1.67.24-1.03 0-1.99-.34-.96-.34-1.78-.93-.83-.6-1.49-1.4-.66-.8-1.13-1.74-.46-.93-.73-1.96-.26-1.03-.26-2.06 0-1.2.35-2.33.35-1.13.95-2.1.6-.98 1.4-1.76.8-.77 1.7-1.32.9-.54 1.81-.85.91-.31 1.7-.31.55 0 1.05.16.51.17.9.46.4.3.66.7.26.39.26.84 0 .3-.14.65-.15.34-.4.63-.24.29-.56.5-.31.2-.63.2-.21 0-.41-.08-.2-.09-.36-.24-.16-.14-.28-.34-.11-.19-.16-.41-.05-.22-.03-.43.02-.22.11-.4.09-.17.26-.27.16-.1.39-.1.17 0 .31.07.15.07.27.18.11.1.2.24.08.14.12.28.04.14.04.25 0 .21-.12.38-.11.17-.32.28-.2.1-.47.1-.28 0-.55-.14-.27-.13-.53-.35-.27-.22-.52-.5-.25-.27-.47-.56-.21-.29-.38-.54l-.26-.38q-.1-.15-.15-.19-.3-.33-.71-.56-.41-.22-.87-.35-.46-.13-.92-.13-.77 0-1.5.29-.72.29-1.35.79-.62.51-1.13 1.17-.5.66-.87 1.4-.36.74-.57 1.5-.2.76-.2 1.45 0 .73.2 1.5.21.76.57 1.46.37.7.88 1.34.5.63 1.13 1.14.62.5 1.35.79.73.28 1.5.28.78 0 1.56-.27.79-.26 1.53-.73.73-.46 1.37-1.07.63-.6 1.1-1.27l.24-.35q.11-.17.23-.17Z"/>
</svg>